<svg xmlns="http://www.w3.org/2000/svg" xmlns:xlink="http://www.w3.org/1999/xlink" width="500" zoomAndPan="magnify" viewBox="0 0 375 374.999991" height="500" preserveAspectRatio="xMidYMid meet" version="1.0"><defs><clipPath id="ebc9844235"><path d="M 15.835938 159.550781 L 339.851562 159.550781 L 339.851562 357.28125 L 15.835938 357.28125 Z M 15.835938 159.550781 " clip-rule="nonzero"/></clipPath><clipPath id="c9973ecdbb"><path d="M 101.683594 288.769531 L 304 288.769531 L 304 375 L 101.683594 375 Z M 101.683594 288.769531 " clip-rule="nonzero"/></clipPath><clipPath id="55265655b3"><path d="M 63.367188 83.417969 L 355 83.417969 L 355 359.984375 L 63.367188 359.984375 Z M 63.367188 83.417969 " clip-rule="nonzero"/></clipPath><clipPath id="0a9cbadc75"><path d="M 209.023438 83.417969 C 128.578125 83.417969 63.367188 145.132812 63.367188 221.261719 C 63.367188 297.394531 128.578125 359.109375 209.023438 359.109375 C 289.464844 359.109375 354.675781 297.394531 354.675781 221.261719 C 354.675781 145.132812 289.464844 83.417969 209.023438 83.417969 " clip-rule="nonzero"/></clipPath><clipPath id="bb4489f279"><path d="M 78.175781 97.429688 L 340 97.429688 L 340 345.882812 L 78.175781 345.882812 Z M 78.175781 97.429688 " clip-rule="nonzero"/></clipPath><clipPath id="8292cbe19f"><path d="M 209.023438 97.429688 C 136.757812 97.429688 78.175781 152.871094 78.175781 221.261719 C 78.175781 289.652344 136.757812 345.09375 209.023438 345.09375 C 281.285156 345.09375 339.867188 289.652344 339.867188 221.261719 C 339.867188 152.871094 281.285156 97.429688 209.023438 97.429688 " clip-rule="nonzero"/></clipPath><clipPath id="4f549aa3f1"><path d="M 0 0 L 331 0 L 331 237 L 0 237 Z M 0 0 " clip-rule="nonzero"/></clipPath><clipPath id="1f6cbac545"><path d="M -21.863281 3.632812 L 164.078125 -128.847656 L 330.324219 104.488281 L 144.382812 236.96875 Z M -21.863281 3.632812 " clip-rule="nonzero"/></clipPath><clipPath id="1e986d31fc"><path d="M -21.863281 3.632812 L 164.066406 -128.839844 L 330.3125 104.496094 L 144.382812 236.96875 Z M -21.863281 3.632812 " clip-rule="nonzero"/></clipPath><clipPath id="13f5da0c9e"><path d="M 63 0 L 375 0 L 375 267 L 63 267 Z M 63 0 " clip-rule="nonzero"/></clipPath><clipPath id="0096e5faa7"><path d="M 243.726562 266.5625 L 63.34375 126.617188 L 238.960938 -99.75 L 419.347656 40.199219 Z M 243.726562 266.5625 " clip-rule="nonzero"/></clipPath><clipPath id="fcb5d55ec0"><path d="M 243.726562 266.5625 L 63.351562 126.625 L 238.972656 -99.742188 L 419.347656 40.199219 Z M 243.726562 266.5625 " clip-rule="nonzero"/></clipPath><clipPath id="39e3aaa764"><path d="M 76.265625 63 L 192 63 L 192 106 L 76.265625 106 Z M 76.265625 63 " clip-rule="nonzero"/></clipPath><clipPath id="37a3ec4e21"><path d="M 184 11.105469 L 207 11.105469 L 207 102 L 184 102 Z M 184 11.105469 " clip-rule="nonzero"/></clipPath><clipPath id="1ccd205bf9"><path d="M 94.273438 165.800781 L 330.292969 165.800781 L 330.292969 339.554688 L 94.273438 339.554688 Z M 94.273438 165.800781 " clip-rule="nonzero"/></clipPath></defs><rect x="-37.5" width="450" fill="#ffffff" y="-37.499999" height="449.999989" fill-opacity="1"/><rect x="-37.5" width="450" fill="#ffffff" y="-37.499999" height="449.999989" fill-opacity="1"/><rect x="-37.5" width="450" fill="#ffffff" y="-37.499999" height="449.999989" fill-opacity="1"/><g clip-path="url(#ebc9844235)"><path fill="#040606" d="M 41.527344 240.875 C 44.292969 263.257812 68.480469 272.570312 88.167969 276.363281 C 88.167969 276.363281 88.167969 276.015625 87.820312 276.015625 C 80.558594 257.398438 75.742188 235.703125 74.359375 214.351562 C 64.675781 214.695312 52.25 216.421875 45.996094 222.625 C 44.292969 224.007812 39.796875 228.488281 41.527344 240.875 Z M 172.484375 331.449219 L 241.582031 331.449219 C 259.195312 331.449219 284.417969 311.476562 302.03125 266.707031 C 315.175781 233.632812 315.523438 198.863281 313.101562 185.070312 L 100.621094 185.070312 C 98.199219 198.863281 98.863281 233.632812 111.660156 266.707031 C 129.273438 311.476562 154.84375 331.449219 172.484375 331.449219 Z M 27.71875 204.351562 C 40.835938 191.621094 60.175781 188.863281 74.359375 188.863281 C 75.023438 180.242188 76.753906 171.648438 80.210938 166.476562 C 83.324219 161.996094 87.820312 159.582031 92.664062 159.582031 L 321.03125 159.582031 C 325.871094 159.582031 330.714844 161.996094 333.484375 166.476562 C 340.402344 176.824219 340.054688 200.585938 339.710938 210.214844 C 338.671875 232.597656 333.828125 256.015625 325.871094 276.015625 C 306.183594 325.960938 273.726562 357.28125 241.238281 357.28125 L 172.140625 357.28125 C 146.226562 357.28125 120.625 337.65625 101.285156 304.582031 C 93.011719 303.890625 81.59375 302.195312 70.210938 298.746094 C 29.417969 286.679688 18.03125 262.570312 15.613281 244.320312 C 13.191406 223.316406 20.800781 210.902344 27.71875 204.351562 " fill-opacity="1" fill-rule="nonzero"/></g><g clip-path="url(#c9973ecdbb)"><path fill="#ffffff" d="M 101.683594 288.769531 L 303.128906 288.769531 L 303.128906 467.832031 L 101.683594 467.832031 Z M 101.683594 288.769531 " fill-opacity="1" fill-rule="nonzero"/></g><g clip-path="url(#55265655b3)"><g clip-path="url(#0a9cbadc75)"><path fill="#000000" d="M 63.367188 83.417969 L 356.015625 83.417969 L 356.015625 359.984375 L 63.367188 359.984375 Z M 63.367188 83.417969 " fill-opacity="1" fill-rule="nonzero"/></g></g><g clip-path="url(#bb4489f279)"><g clip-path="url(#8292cbe19f)"><path fill="#ffffff" d="M 78.175781 97.429688 L 341.074219 97.429688 L 341.074219 345.882812 L 78.175781 345.882812 Z M 78.175781 97.429688 " fill-opacity="1" fill-rule="nonzero"/></g></g><g clip-path="url(#4f549aa3f1)"><g clip-path="url(#1f6cbac545)"><g clip-path="url(#1e986d31fc)"><path fill="#ffffff" d="M -21.863281 3.632812 L 164.078125 -128.847656 L 330.324219 104.488281 L 144.382812 236.96875 Z M -21.863281 3.632812 " fill-opacity="1" fill-rule="nonzero"/></g></g></g><g clip-path="url(#13f5da0c9e)"><g clip-path="url(#0096e5faa7)"><g clip-path="url(#fcb5d55ec0)"><path fill="#ffffff" d="M 243.726562 266.5625 L 63.34375 126.617188 L 238.960938 -99.75 L 419.347656 40.199219 Z M 243.726562 266.5625 " fill-opacity="1" fill-rule="nonzero"/></g></g></g><g clip-path="url(#39e3aaa764)"><path fill="#009245" d="M 191.804688 105.441406 C 191.75 105.515625 172.578125 99.832031 154.0625 91.234375 C 156.8125 91.523438 159.578125 91.882812 162.351562 92.3125 C 157.082031 90.660156 151.824219 89.308594 146.597656 88.253906 C 141.960938 87.3125 137.222656 86.144531 132.492188 84.8125 C 131.90625 84.648438 131.328125 84.488281 130.742188 84.324219 C 128.535156 83.707031 126.367188 83.113281 124.234375 82.539062 C 128.390625 82.085938 132.609375 81.789062 136.875 81.65625 C 133.492188 81.261719 130.132812 80.984375 126.804688 80.824219 C 119.601562 80.46875 112.125 79.367188 105.019531 77.824219 C 104.042969 77.609375 103.085938 77.40625 102.144531 77.207031 C 106.148438 76.382812 110.238281 75.726562 114.394531 75.238281 C 108.914062 75.316406 103.539062 75.71875 98.304688 76.425781 C 84.984375 73.835938 76.449219 72.871094 76.425781 72.78125 C 76.261719 73.296875 97.078125 58.4375 130.203125 65.054688 C 163.878906 70.824219 192.644531 105.164062 191.804688 105.441406 " fill-opacity="1" fill-rule="nonzero"/></g><g clip-path="url(#37a3ec4e21)"><path fill="#009245" d="M 194.191406 101.683594 C 194.121094 101.664062 192.671875 86.554688 193.464844 71.082031 C 194.046875 73.101562 194.578125 75.148438 195.066406 77.222656 C 194.734375 73.046875 194.1875 68.960938 193.445312 64.980469 C 192.785156 61.445312 192.261719 57.78125 191.851562 54.070312 C 191.804688 53.613281 191.75 53.160156 191.699219 52.703125 C 191.507812 50.972656 191.308594 49.277344 191.105469 47.613281 C 192.609375 50.410156 194.019531 53.300781 195.328125 56.265625 C 194.644531 53.769531 193.882812 51.328125 193.046875 48.9375 C 191.246094 43.761719 189.894531 38.1875 188.960938 32.746094 C 188.832031 31.996094 188.707031 31.265625 188.578125 30.546875 C 190.296875 33.132812 191.925781 35.828125 193.457031 38.617188 C 191.839844 34.78125 190.023438 31.105469 188.035156 27.621094 C 186.066406 17.507812 184.3125 11.222656 184.375 11.179688 C 183.964844 11.214844 200.382812 21.664062 205.152344 46.867188 C 210.667969 72.21875 194.625 102.195312 194.191406 101.683594 " fill-opacity="1" fill-rule="nonzero"/></g><path fill="#009245" d="M 191.179688 108.003906 C 191.164062 108.085938 173.671875 111.597656 155.476562 112.53125 C 157.765625 111.613281 160.097656 110.742188 162.464844 109.925781 C 157.617188 110.820312 152.90625 111.945312 148.34375 113.289062 C 144.292969 114.484375 140.070312 115.539062 135.78125 116.460938 C 135.253906 116.570312 134.726562 116.6875 134.199219 116.800781 C 132.199219 117.234375 130.238281 117.667969 128.320312 118.105469 C 131.40625 116.015625 134.609375 114.023438 137.921875 112.140625 C 135.085938 113.238281 132.320312 114.421875 129.628906 115.683594 C 123.800781 118.40625 117.441406 120.652344 111.195312 122.394531 C 110.332031 122.632812 109.492188 122.871094 108.671875 123.109375 C 111.484375 120.789062 114.433594 118.566406 117.511719 116.449219 C 113.21875 118.796875 109.148438 121.351562 105.3125 124.09375 C 93.726562 127.601562 86.589844 130.402344 86.535156 130.339844 C 86.621094 130.8125 96.832031 110.417969 125.722656 101.828125 C 154.695312 92.34375 191.726562 107.4375 191.179688 108.003906 " fill-opacity="1" fill-rule="nonzero"/><path fill="#009245" d="M 212.667969 173.554688 C 209.75 164.683594 211.265625 155.640625 211.214844 155.960938 C 210.453125 159.484375 210.195312 162.679688 210.203125 165.503906 C 209.835938 164.230469 209.507812 163.164062 209.339844 162.621094 C 209.1875 162.125 209.039062 161.628906 208.890625 161.136719 C 208.109375 158.546875 207.480469 155.925781 206.992188 153.28125 C 206.546875 150.84375 206.355469 148.394531 206.378906 145.980469 C 206.394531 144.511719 206.386719 143.035156 206.359375 141.554688 C 205.695312 142.792969 205.027344 144.027344 204.355469 145.261719 C 200.351562 135.132812 203.0625 125.351562 203.015625 125.6875 C 201.53125 129.933594 201.148438 133.867188 201.21875 137.238281 C 196.675781 123.296875 194.484375 108.207031 194.507812 108.179688 C 194.503906 107.757812 217.957031 120.667969 225.085938 138.75 C 222.757812 136.398438 220.347656 134.105469 217.867188 131.882812 C 217.867188 131.71875 230.628906 143.90625 234.261719 158.617188 C 232.789062 155.980469 230.816406 153.324219 228.246094 150.941406 C 227.933594 150.621094 234.015625 157.402344 235.855469 166.007812 C 235.890625 166.242188 235.929688 166.480469 235.960938 166.710938 C 234.648438 165.203125 233.304688 163.71875 231.9375 162.265625 C 235.148438 168.257812 236.613281 176.695312 236.03125 182.59375 C 235.394531 178.5625 234.074219 173.726562 231.503906 168.453125 C 231.320312 168.039062 235.519531 176.847656 235.476562 186.339844 C 235.417969 186.644531 235.363281 186.949219 235.300781 187.25 C 233.660156 183.296875 231.832031 179.398438 229.8125 175.558594 C 231.683594 180.578125 233.238281 185.628906 234.480469 190.683594 C 231.472656 201.691406 226.585938 208.042969 226.007812 208.917969 C 223.304688 200.609375 224.605469 191.765625 224.535156 192.058594 C 223.722656 196.617188 223.589844 200.496094 223.777344 203.722656 C 222.410156 200.363281 220.65625 196.410156 220.445312 194.695312 C 220.714844 190.863281 220.800781 186.957031 220.695312 182.992188 C 220.101562 186.09375 219.402344 189.136719 218.601562 192.121094 C 216.121094 185.136719 214.390625 176.046875 213.710938 169.40625 C 213.382812 170.800781 213.035156 172.183594 212.667969 173.554688 " fill-opacity="1" fill-rule="nonzero"/><path fill="#009245" d="M 166.25 153.992188 C 169.527344 147.667969 175.265625 143.667969 175.0625 143.8125 C 172.734375 145.277344 170.855469 146.84375 169.320312 148.355469 C 169.820312 147.472656 170.222656 146.726562 170.433594 146.347656 C 170.621094 145.996094 170.8125 145.652344 171 145.308594 C 171.996094 143.503906 173.089844 141.761719 174.269531 140.085938 C 175.363281 138.539062 176.59375 137.132812 177.921875 135.855469 C 178.730469 135.078125 179.53125 134.285156 180.324219 133.480469 C 179.296875 133.78125 178.265625 134.078125 177.234375 134.367188 C 180.621094 126.785156 187.398438 123.039062 187.191406 123.195312 C 184.085938 124.65625 181.734375 126.546875 179.933594 128.382812 C 185.109375 118.46875 192.164062 109.222656 192.195312 109.222656 C 192.421875 108.996094 197.898438 128.644531 191.847656 142.171875 C 191.886719 139.648438 191.851562 137.117188 191.738281 134.582031 C 191.828125 134.496094 191.992188 147.941406 185.914062 157.765625 C 186.566406 155.558594 186.960938 153.070312 186.886719 150.398438 C 186.898438 150.058594 186.445312 156.984375 182.734375 162.578125 C 182.628906 162.722656 182.519531 162.871094 182.410156 163.011719 C 182.53125 161.492188 182.621094 159.96875 182.683594 158.449219 C 181.132812 163.394531 177.3125 168.691406 173.789062 171.523438 C 175.648438 169.027344 177.578125 165.726562 179.078125 161.515625 C 179.207031 161.195312 176.648438 168.179688 171.453125 173.222656 C 171.253906 173.355469 171.058594 173.488281 170.859375 173.609375 C 172.140625 170.609375 173.289062 167.535156 174.304688 164.386719 C 172.566406 168.082031 170.644531 171.625 168.550781 175 C 160.945312 179.238281 154.875 179.96875 154.089844 180.121094 C 157.175781 174.214844 162.691406 170.207031 162.492188 170.320312 C 159.574219 172.316406 157.390625 174.308594 155.730469 176.132812 C 156.832031 173.597656 158.050781 170.535156 158.875 169.503906 C 161.105469 167.605469 163.28125 165.566406 165.386719 163.394531 C 163.378906 164.726562 161.347656 165.96875 159.292969 167.125 C 161.777344 162.050781 165.808594 156.257812 169.066406 152.347656 C 168.132812 152.910156 167.191406 153.457031 166.25 153.992188 " fill-opacity="1" fill-rule="nonzero"/><path fill="#009245" d="M 244.640625 142.320312 C 239.238281 136.484375 235.628906 129.382812 235.679688 129.589844 C 237.074219 132.515625 238.394531 134.980469 239.648438 137.085938 C 238.855469 136.277344 238.179688 135.625 237.832031 135.289062 C 237.519531 134.984375 237.199219 134.679688 236.886719 134.382812 C 235.234375 132.804688 233.625 131.191406 232.035156 129.539062 C 230.570312 128.007812 229.191406 126.386719 227.859375 124.707031 C 227.050781 123.683594 226.203125 122.675781 225.3125 121.679688 C 225.746094 122.851562 226.136719 124.015625 226.488281 125.179688 C 219.304688 120.214844 213.601562 112.886719 213.679688 113.097656 C 216.203125 116.503906 218.484375 119.207031 220.511719 121.371094 C 210.660156 114.382812 198.113281 107.800781 197.945312 107.886719 C 197.976562 107.953125 201.515625 106.039062 207.761719 105.375 C 213.894531 104.664062 222.902344 105.449219 231.019531 109.945312 C 228.378906 109.496094 225.777344 109.207031 223.234375 109.058594 C 222.910156 108.949219 237.273438 109.972656 249.0625 120.90625 C 246.617188 119.386719 243.902344 118.195312 241.136719 117.613281 C 240.722656 117.519531 248.257812 119.722656 254.578125 126.59375 C 254.742188 126.785156 254.90625 126.980469 255.0625 127.175781 C 253.460938 126.441406 251.855469 125.777344 250.261719 125.175781 C 255.636719 128.746094 261.332031 135.960938 263.761719 141.875 C 261.425781 138.261719 258.09375 134.261719 253.679688 130.757812 C 253.285156 130.433594 260.867188 136.371094 265.160156 145.6875 C 265.261719 146.003906 265.359375 146.320312 265.449219 146.632812 C 262.632812 143.371094 259.617188 140.410156 256.472656 137.765625 C 260.117188 141.523438 263.457031 145.707031 266.375 150.253906 C 268.855469 162.09375 266.375 169.363281 266.210938 170.261719 C 262.183594 162.382812 259.976562 154.191406 260 154.421875 C 261.046875 158.808594 262.109375 162.453125 263.152344 165.527344 C 261.191406 162.511719 258.644531 159.265625 257.925781 157.785156 C 256.875 154.285156 255.519531 150.824219 253.867188 147.449219 C 254.691406 150.289062 255.304688 153.121094 255.710938 155.914062 C 251.578125 150.335938 246.925781 143.597656 243.554688 138.722656 C 243.960938 139.929688 244.320312 141.128906 244.640625 142.320312 " fill-opacity="1" fill-rule="nonzero"/><path fill="#009245" d="M 241.847656 72.144531 C 235.542969 75.21875 228.882812 76.816406 229.058594 76.808594 C 231.773438 76.214844 234.105469 75.613281 236.144531 75.007812 C 235.257812 75.460938 234.527344 75.855469 234.152344 76.058594 C 233.8125 76.246094 233.472656 76.429688 233.136719 76.613281 C 231.371094 77.582031 229.589844 78.511719 227.785156 79.425781 C 226.113281 80.265625 224.40625 81.03125 222.667969 81.75 C 221.613281 82.191406 220.550781 82.660156 219.484375 83.160156 C 220.53125 83.011719 221.558594 82.894531 222.570312 82.804688 C 216.332031 87.277344 208.785156 90.355469 208.972656 90.328125 C 212.4375 88.992188 215.28125 87.726562 217.625 86.574219 C 208.9375 92.683594 196.796875 103.453125 196.800781 103.585938 C 196.863281 103.574219 199.945312 91.515625 212.425781 77.40625 C 211.191406 79.242188 210.085938 81.074219 209.113281 82.882812 C 208.917969 83.101562 214.5625 72.902344 226.933594 65.957031 C 224.941406 67.5 223.109375 69.289062 221.726562 71.203125 C 221.515625 71.484375 225.753906 66.367188 233.160156 62.78125 C 233.359375 62.695312 233.566406 62.601562 233.765625 62.515625 C 232.664062 63.570312 231.609375 64.628906 230.609375 65.695312 C 235.164062 62.324219 242.625 59.238281 247.976562 58.320312 C 244.417969 59.492188 240.226562 61.332031 236.046875 64.015625 C 235.664062 64.253906 242.777344 59.628906 251.371094 57.847656 C 251.648438 57.820312 251.921875 57.796875 252.191406 57.773438 C 248.742188 59.34375 245.453125 61.097656 242.363281 62.992188 C 246.472656 60.894531 250.8125 59.078125 255.28125 57.617188 C 265.195312 57.492188 269.925781 60.296875 270.5625 60.542969 C 263.15625 62.335938 256.136719 62.773438 256.320312 62.792969 C 260.03125 62.652344 263.1875 62.398438 265.898438 62.078125 C 262.921875 63.066406 259.574219 64.445312 258.191406 64.753906 C 255.15625 65.019531 252.046875 65.507812 248.902344 66.222656 C 251.359375 66.03125 253.734375 65.988281 256.011719 66.085938 C 250.335938 68.277344 243.597656 70.679688 238.722656 72.421875 C 239.785156 72.300781 240.828125 72.207031 241.847656 72.144531 " fill-opacity="1" fill-rule="nonzero"/><path fill="#009245" d="M 249.339844 104.464844 C 243.1875 103.402344 237.542969 101.09375 237.671875 101.179688 C 239.941406 102.164062 241.941406 102.941406 243.730469 103.5625 C 242.851562 103.429688 242.121094 103.335938 241.742188 103.289062 C 241.402344 103.246094 241.058594 103.203125 240.71875 103.160156 C 238.941406 102.941406 237.167969 102.6875 235.386719 102.40625 C 233.746094 102.144531 232.113281 101.8125 230.480469 101.425781 C 229.492188 101.195312 228.476562 100.980469 227.449219 100.789062 C 228.28125 101.226562 229.082031 101.675781 229.859375 102.136719 C 223.023438 102.125 215.972656 100.421875 216.117188 100.5 C 219.320312 101.335938 222.03125 101.902344 224.324219 102.289062 C 214.867188 102.183594 200.484375 103.648438 200.417969 103.75 C 200.472656 103.769531 208.976562 96.664062 225.347656 92.960938 C 223.496094 93.644531 221.746094 94.394531 220.101562 95.195312 C 219.84375 95.253906 229.238281 90.824219 241.792969 92.234375 C 239.546875 92.316406 237.292969 92.652344 235.300781 93.316406 C 235 93.410156 240.726562 91.917969 247.945312 93.183594 C 248.136719 93.222656 248.332031 93.261719 248.523438 93.304688 C 247.175781 93.492188 245.863281 93.707031 244.585938 93.957031 C 249.632812 93.894531 256.628906 95.542969 260.972656 97.664062 C 257.789062 96.660156 253.804688 95.808594 249.386719 95.574219 C 248.984375 95.546875 256.535156 95.90625 263.671875 99.089844 C 263.882812 99.210938 264.097656 99.335938 264.304688 99.460938 C 260.992188 98.800781 257.699219 98.355469 254.484375 98.117188 C 258.542969 98.742188 262.625 99.683594 266.617188 100.953125 C 273.84375 106.019531 275.796875 110.507812 276.125 111.015625 C 269.84375 108.460938 264.546875 105.125 264.671875 105.230469 C 267.421875 107.0625 269.835938 108.519531 271.957031 109.699219 C 269.292969 108.863281 266.15625 108.117188 264.996094 107.625 C 262.667969 106.238281 260.164062 104.972656 257.523438 103.855469 C 259.394531 104.992188 261.136719 106.195312 262.730469 107.449219 C 257.488281 106.082031 251.367188 104.3125 246.9375 103.039062 C 247.769531 103.5 248.570312 103.976562 249.339844 104.464844 " fill-opacity="1" fill-rule="nonzero"/><path fill="#009245" d="M 152.550781 55.460938 C 158.5 61.058594 165.265625 65.246094 165.082031 65.171875 C 162.3125 63.523438 159.960938 62.007812 157.9375 60.605469 C 158.773438 61.410156 159.460938 62.097656 159.808594 62.449219 C 160.128906 62.773438 160.445312 63.089844 160.761719 63.410156 C 162.417969 65.082031 164.101562 66.714844 165.828125 68.339844 C 167.417969 69.839844 169.074219 71.269531 170.777344 72.671875 C 171.816406 73.527344 172.855469 74.414062 173.886719 75.332031 C 172.789062 74.777344 171.703125 74.257812 170.632812 73.78125 C 176.277344 80.703125 183.816406 86.710938 183.625 86.621094 C 180.136719 83.921875 177.34375 81.554688 175.074219 79.488281 C 183.011719 88.992188 191.34375 100.617188 191.3125 100.746094 C 191.242188 100.703125 192.257812 98.089844 191.609375 92.921875 C 191.023438 87.863281 188.523438 80.039062 182.976562 72.28125 C 183.894531 74.636719 184.664062 76.921875 185.296875 79.128906 C 185.476562 79.445312 181.675781 66.925781 169.882812 54.800781 C 171.679688 57.191406 173.257812 59.765625 174.304688 62.273438 C 174.476562 62.652344 171.046875 55.71875 163.898438 49.046875 C 163.699219 48.871094 163.5 48.699219 163.304688 48.53125 C 164.253906 50.066406 165.148438 51.585938 165.980469 53.085938 C 161.839844 47.792969 154.546875 41.605469 149.085938 38.519531 C 152.601562 41.167969 156.660156 44.757812 160.53125 49.199219 C 160.890625 49.605469 154.292969 41.972656 145.601562 36.6875 C 145.316406 36.550781 145.03125 36.414062 144.753906 36.285156 C 148.0625 39.3125 151.171875 42.460938 154.035156 45.660156 C 150.128906 41.847656 145.929688 38.222656 141.539062 34.902344 C 131.164062 30.867188 125.796875 32.050781 125.09375 32.070312 C 132.359375 36.910156 139.589844 40.078125 139.394531 40.027344 C 135.550781 38.441406 132.339844 36.949219 129.605469 35.550781 C 132.484375 37.773438 135.675781 40.542969 137.042969 41.402344 C 140.140625 42.855469 143.289062 44.570312 146.433594 46.539062 C 143.898438 45.390625 141.421875 44.429688 139.035156 43.660156 C 144.476562 48.175781 151.015625 53.261719 155.792969 56.941406 C 154.699219 56.40625 153.617188 55.910156 152.550781 55.460938 " fill-opacity="1" fill-rule="nonzero"/><g clip-path="url(#1ccd205bf9)"><path fill="#e28c00" d="M 316.296875 165.933594 C 320.25 177.550781 322.398438 190.003906 322.398438 202.960938 C 322.398438 266.441406 270.882812 317.90625 207.335938 317.90625 C 151.164062 317.90625 104.398438 277.6875 94.300781 224.507812 C 95.816406 288.304688 148.054688 339.554688 212.277344 339.554688 C 277.453125 339.554688 330.292969 286.769531 330.292969 221.660156 C 330.292969 201.503906 325.222656 182.527344 316.296875 165.933594 " fill-opacity="1" fill-rule="nonzero"/></g><path fill="#009245" d="M 211.28125 296.835938 C 159.386719 296.835938 117.3125 254.804688 117.3125 202.960938 C 117.3125 161.082031 144.765625 125.617188 182.667969 113.523438 C 137.796875 122.867188 104.082031 162.597656 104.082031 210.195312 C 104.082031 264.738281 148.339844 308.949219 202.9375 308.949219 C 245.730469 308.949219 282.167969 281.785156 295.925781 243.777344 C 280.726562 275.175781 248.535156 296.835938 211.28125 296.835938 " fill-opacity="1" fill-rule="nonzero"/><path fill="#46a4de" d="M 175.0625 261.390625 C 175.0625 261.390625 175.460938 261.316406 176.210938 261.171875 C 176.585938 261.101562 177.050781 261.015625 177.597656 260.914062 C 178.140625 260.796875 178.769531 260.660156 179.472656 260.503906 C 182.28125 259.871094 186.285156 258.816406 191.03125 257.0625 C 195.789062 255.324219 201.28125 252.910156 207.222656 249.867188 C 208.707031 249.105469 210.21875 248.316406 211.773438 247.492188 C 213.339844 246.664062 215 245.78125 216.816406 244.964844 C 218.632812 244.144531 220.617188 243.390625 222.765625 242.871094 C 223.300781 242.738281 223.851562 242.625 224.402344 242.527344 C 224.957031 242.457031 225.515625 242.386719 226.074219 242.316406 C 227.191406 242.136719 228.316406 242.152344 229.449219 242.136719 C 234 242.148438 238.132812 243.316406 241.789062 244.578125 C 245.457031 245.871094 248.722656 247.328125 251.789062 248.546875 C 254.855469 249.777344 257.722656 250.769531 260.464844 251.363281 C 260.804688 251.441406 261.148438 251.519531 261.484375 251.59375 C 261.820312 251.644531 262.15625 251.691406 262.488281 251.742188 C 263.15625 251.839844 263.8125 251.960938 264.460938 252 C 265.757812 252.117188 267.027344 252.144531 268.253906 252.101562 C 273.164062 251.933594 277.265625 250.980469 280.082031 250.390625 C 282.886719 249.765625 284.484375 249.410156 284.484375 249.410156 C 284.484375 249.410156 283.09375 250.21875 280.496094 251.542969 C 279.195312 252.203125 277.585938 252.988281 275.640625 253.785156 C 273.695312 254.574219 271.421875 255.40625 268.757812 255.992188 C 267.429688 256.296875 266.003906 256.527344 264.488281 256.65625 C 263.726562 256.738281 262.953125 256.730469 262.160156 256.746094 C 261.761719 256.746094 261.363281 256.753906 260.957031 256.757812 C 260.554688 256.730469 260.152344 256.703125 259.746094 256.679688 C 256.476562 256.480469 253.066406 255.773438 249.679688 254.824219 C 246.285156 253.878906 242.894531 252.703125 239.503906 251.730469 C 236.113281 250.769531 232.710938 249.972656 229.371094 249.980469 C 228.539062 250.003906 227.703125 249.964844 226.898438 250.09375 C 226.492188 250.136719 226.085938 250.175781 225.683594 250.214844 C 225.285156 250.277344 224.890625 250.347656 224.496094 250.433594 C 222.910156 250.765625 221.324219 251.273438 219.71875 251.890625 C 218.117188 252.5 216.503906 253.210938 214.847656 253.917969 C 213.1875 254.628906 211.527344 255.300781 209.902344 255.921875 C 203.386719 258.414062 197.242188 260.015625 192.023438 260.859375 C 186.796875 261.722656 182.511719 261.820312 179.585938 261.726562 C 178.859375 261.691406 178.207031 261.660156 177.644531 261.636719 C 177.085938 261.585938 176.609375 261.542969 176.226562 261.507812 C 175.464844 261.433594 175.0625 261.390625 175.0625 261.390625 " fill-opacity="1" fill-rule="nonzero"/><path fill="#2d719d" d="M 269.472656 271.015625 C 269.472656 271.015625 267.789062 270.726562 264.773438 270.136719 C 261.757812 269.570312 257.40625 268.617188 252.121094 267.980469 C 246.828125 267.3125 240.703125 267.355469 234.058594 268.808594 C 227.410156 270.203125 220.347656 272.929688 213.082031 276.386719 C 211.261719 277.257812 209.488281 278.136719 207.707031 279.042969 C 205.902344 279.953125 204.019531 280.902344 202.003906 281.714844 C 199.992188 282.523438 197.816406 283.183594 195.550781 283.496094 C 193.273438 283.78125 191.019531 283.707031 188.925781 283.316406 C 184.714844 282.535156 181.3125 280.726562 178.460938 278.941406 C 175.605469 277.128906 173.210938 275.273438 171.042969 273.625 C 168.878906 271.96875 166.941406 270.515625 165.175781 269.328125 C 163.410156 268.140625 161.824219 267.230469 160.472656 266.566406 C 159.128906 265.890625 158.015625 265.492188 157.257812 265.214844 C 156.492188 264.972656 156.082031 264.839844 156.082031 264.839844 C 156.082031 264.839844 156.515625 264.847656 157.328125 264.863281 C 158.136719 264.921875 159.355469 265.007812 160.890625 265.335938 C 162.429688 265.652344 164.296875 266.1875 166.382812 266.992188 C 168.46875 267.796875 170.777344 268.867188 173.238281 270.097656 C 175.707031 271.324219 178.339844 272.707031 181.136719 273.933594 C 183.929688 275.148438 186.910156 276.175781 189.878906 276.371094 C 191.355469 276.480469 192.835938 276.363281 194.289062 276.0625 C 195.75 275.726562 197.261719 275.164062 198.847656 274.414062 C 200.433594 273.664062 202.089844 272.746094 203.871094 271.773438 C 205.675781 270.789062 207.574219 269.808594 209.507812 268.886719 C 217.265625 265.191406 225.335938 262.636719 232.980469 261.878906 C 236.792969 261.484375 240.472656 261.519531 243.859375 261.925781 C 247.257812 262.296875 250.3125 263.078125 253.003906 263.917969 C 258.378906 265.644531 262.390625 267.597656 265.179688 268.902344 C 267.957031 270.234375 269.472656 271.015625 269.472656 271.015625 " fill-opacity="1" fill-rule="nonzero"/><path fill="#e28c00" d="M 175.550781 229.605469 C 176.59375 229.832031 177.613281 229.972656 178.601562 230 C 179.585938 230.019531 180.554688 229.921875 181.5 229.742188 C 183.371094 229.375 185.460938 228.457031 187.824219 227.191406 C 189.003906 226.5625 190.261719 225.84375 191.609375 225.101562 C 192.980469 224.355469 194.371094 223.617188 195.800781 222.902344 C 198.65625 221.476562 201.640625 220.132812 204.761719 218.945312 C 208.125 217.664062 211.574219 216.605469 215.066406 215.820312 C 216.097656 212.667969 216.660156 209.308594 216.660156 205.8125 C 216.660156 187.992188 202.199219 173.550781 184.363281 173.550781 C 166.527344 173.550781 152.070312 187.992188 152.070312 205.8125 C 152.070312 211.148438 153.375 216.175781 155.667969 220.605469 C 158.027344 221.613281 160.367188 222.796875 162.683594 224.011719 C 166.96875 226.246094 171.359375 228.671875 175.550781 229.605469 " fill-opacity="1" fill-rule="nonzero"/><path fill="#2d719d" d="M 293.273438 231.253906 C 292.695312 231.421875 291.972656 231.605469 291.128906 231.816406 C 290.265625 231.972656 289.296875 232.1875 288.175781 232.292969 C 285.957031 232.550781 283.234375 232.59375 280.132812 232.238281 C 277.03125 231.886719 273.550781 231.113281 269.804688 229.925781 C 266.058594 228.753906 262.0625 227.089844 257.625 225.230469 C 253.191406 223.382812 248.335938 221.3125 242.75 219.691406 C 239.957031 218.890625 236.976562 218.21875 233.816406 217.832031 C 230.652344 217.460938 227.382812 217.375 224.109375 217.597656 C 221.082031 217.792969 218.058594 218.257812 215.066406 218.929688 C 211.574219 219.710938 208.125 220.773438 204.761719 222.050781 C 201.640625 223.242188 198.65625 224.582031 195.800781 226.007812 C 194.371094 226.722656 192.980469 227.464844 191.609375 228.210938 C 190.261719 228.953125 189.003906 229.671875 187.824219 230.296875 C 185.460938 231.566406 183.371094 232.484375 181.5 232.851562 C 180.554688 233.03125 179.585938 233.125 178.601562 233.105469 C 177.613281 233.078125 176.59375 232.9375 175.550781 232.710938 C 171.359375 231.78125 166.96875 229.351562 162.683594 227.121094 C 160.367188 225.902344 158.027344 224.722656 155.667969 223.714844 C 153.648438 222.851562 151.613281 222.113281 149.558594 221.613281 C 147.351562 221.070312 145.136719 220.789062 143.066406 220.808594 C 140.996094 220.828125 139.101562 221.113281 137.402344 221.507812 C 134 222.304688 131.339844 223.484375 129.226562 224.492188 C 127.113281 225.507812 125.546875 226.394531 124.484375 226.992188 C 123.425781 227.597656 122.871094 227.917969 122.871094 227.917969 C 122.871094 227.917969 123.496094 227.769531 124.679688 227.492188 C 125.863281 227.214844 127.609375 226.78125 129.84375 226.339844 C 132.078125 225.910156 134.820312 225.441406 137.886719 225.425781 C 139.417969 225.421875 141.023438 225.539062 142.636719 225.871094 C 144.246094 226.195312 145.878906 226.753906 147.546875 227.523438 C 150.894531 229.058594 154.308594 231.515625 158.164062 234.359375 C 160.105469 235.78125 162.15625 237.304688 164.496094 238.789062 C 166.832031 240.265625 169.445312 241.746094 172.574219 242.816406 C 174.136719 243.347656 175.8125 243.78125 177.589844 244.011719 C 179.371094 244.238281 181.222656 244.261719 183.089844 244.070312 C 186.863281 243.664062 190.210938 242.347656 193.121094 241.011719 C 194.589844 240.335938 195.953125 239.644531 197.261719 238.996094 C 198.558594 238.363281 199.859375 237.730469 201.175781 237.125 C 203.808594 235.90625 206.484375 234.753906 209.210938 233.71875 C 214.652344 231.648438 220.027344 230.128906 225.226562 229.492188 C 227.828125 229.164062 230.371094 229.046875 232.867188 229.125 C 235.363281 229.214844 237.867188 229.519531 240.351562 229.949219 C 245.324219 230.816406 250.214844 232.152344 254.929688 233.328125 C 259.640625 234.507812 264.226562 235.546875 268.515625 236.035156 C 272.792969 236.535156 276.726562 236.570312 280.140625 236.1875 C 283.558594 235.8125 286.429688 235.046875 288.652344 234.1875 C 289.769531 233.777344 290.714844 233.289062 291.527344 232.898438 C 292.324219 232.449219 292.984375 232.070312 293.503906 231.738281 C 294.5 231.035156 295.027344 230.660156 295.027344 230.660156 C 295.027344 230.660156 294.421875 230.867188 293.273438 231.253906 " fill-opacity="1" fill-rule="nonzero"/></svg>